<svg xmlns="http://www.w3.org/2000/svg" viewBox="0 0 180 76">
    
    <!-- Первый путь (Path 2) -->
    <path 
        fill="#000000" 
        fill-opacity="1" 
        stroke-width="1" 
        stroke-opacity="1" 
        id="tSvg115edaf5df1" 
        title="Path 2" 
        d="M1 75C1 75 29.686 25.6667 29.686 25.6667C29.686 25.6667 71.6116 1 71.6116 1C71.6116 1 139.6488 1 139.6488 1C139.6488 1 179 75 179 75C179 75 1 75 1 75Z"
    />
    
    <!-- Второй путь (Path 1) -->
    <path 
        fill="#ffffff" 
        stroke="#000000" 
        fill-opacity="1" 
        stroke-width="1" 
        stroke-opacity="1" 
        id="tSvg9c49de278f" 
        title="Path 1" 
        d="M60 74C60 74 64.5 56.5472 64.5 56.5472C64.5 56.5472 81 49 81 49C81 49 101.5 49 101.5 49C101.5 49 116 74 116 74C116 74 60 74 60 74"
    />
</svg>