<svg version="1.1" id="Capa_1" xmlns="http://www.w3.org/2000/svg" xmlns:xlink="http://www.w3.org/1999/xlink" x="0px" y="0px" viewBox="0 0 512 512" style="enable-background:new 0 0 512 512;" xml:space="preserve"><g>
    <g>
        <path d="M416,149.333H298.667V10.667C298.667,4.779,293.888,0,288,0h-64c-5.888,0-10.667,4.779-10.667,10.667v138.667H96 c-5.888,0-10.667,4.779-10.667,10.667v64c0,5.888,4.779,10.667,10.667,10.667h117.333v266.667c0,5.888,4.779,10.667,10.667,10.667 h64c5.888,0,10.667-4.779,10.667-10.667V234.667H416c5.888,0,10.667-4.779,10.667-10.667v-64 C426.667,154.112,421.888,149.333,416,149.333z M405.333,213.333H288c-5.888,0-10.667,4.779-10.667,10.667v266.667h-42.667V224 c0-5.888-4.779-10.667-10.667-10.667H106.667v-42.667H224c5.888,0,10.667-4.779,10.667-10.667V21.333h42.667V160 c0,5.888,4.779,10.667,10.667,10.667h117.333V213.333z"/>
        </g>
    </g>
</svg>